<?xml version="1.0" encoding="UTF-8"?><svg id="Layer_1" xmlns="http://www.w3.org/2000/svg" viewBox="0 0 70 70"><defs><style>.cls-1{fill:#fff;stroke-width:0px;}</style></defs><path class="cls-1" d="m50.16,18.49c.8,0,1.51,0,2.21,0,2.89,0,5.78,0,8.66,0,1.72,0,2.84,1.12,2.84,2.85,0,14.59,0,29.18,0,43.77,0,1.77-1.12,2.91-2.87,2.91-17.36,0-34.72,0-52.08,0-1.67,0-2.79-1.13-2.79-2.8,0-14.61,0-29.23,0-43.84,0-1.8,1.08-2.87,2.88-2.88,3.26,0,6.52,0,9.78,0,.31,0,.62,0,1.07,0-.2-5.61,1.77-10.23,6.26-13.59,2.89-2.16,6.21-3.11,9.83-2.87,4.24.28,7.75,2.07,10.51,5.27,2.74,3.17,3.81,6.96,3.7,11.19Zm-6.17-.03c.65-3.41-1.19-7.28-4.28-9.13-3.28-1.97-7.5-1.66-10.43.7-2.48,1.99-3.92,5.59-3.22,8.43h17.92Z"/></svg>